  
  <svg xmlns="http://www.w3.org/2000/svg" width="320" height="235" viewBox="0 0 320 235" fill="none" role="img">
    <title>
      Most Used Languages
    </title>
    <style>
  .header {
    font-weight: bold;
    font-family: sans-serif;
    font-size: 18px;
    fill: #fff;
  }

  .text {
    font-family: sans-serif;
    fill: #9f9f9f;
    font-size: 14px;
  }
  .small {
    font-size: 12px;
  }

  .icon {
    fill: #79ff97;
  }

  .fade-in {
    opacity: 0;
    animation: fadeInAnimation 0.8s ease-in-out forwards;
  } 
  @keyframes fadeInAnimation {
    from {
      opacity: 0;
    }
    to {
      opacity: 1;
    }
  }
</style>
    <rect class="container" x="0" y="0" width="100%" height="100%" rx="4.5" fill="#151515" stroke="#e4e2e2">
    </rect>
    <g transform="translate(25,35)">
      <text class="header fade-in">
        Most Used Languages
      </text>
    </g>
    
        <g class="fade-in" style="animation-delay: 450ms" transform="translate(25,60)">
        
          <text class="text small">JavaScript</text>
          <g transform="translate(0,10)">
            <rect fill="#333" height="8" rx="5" ry="5" width="195" x="0" y="0"/>
            <rect fill="#f1e05a" height="8" rx="5" ry="5" width="72.1432457733863" x="0.0" y="0"/>
          </g>
          <text class="text small" x="220" y="18">37.0% </text>
        </g>
       
        <g class="fade-in" style="animation-delay: 750ms" transform="translate(25,95)">
        
          <text class="text small">TypeScript</text>
          <g transform="translate(0,10)">
            <rect fill="#333" height="8" rx="5" ry="5" width="195" x="0" y="0"/>
            <rect fill="#3178c6" height="8" rx="5" ry="5" width="63.505520786727836" x="0.0" y="0"/>
          </g>
          <text class="text small" x="220" y="18">32.6% </text>
        </g>
       
        <g class="fade-in" style="animation-delay: 1050ms" transform="translate(25,130)">
        
          <text class="text small">Ruby</text>
          <g transform="translate(0,10)">
            <rect fill="#333" height="8" rx="5" ry="5" width="195" x="0" y="0"/>
            <rect fill="#701516" height="8" rx="5" ry="5" width="37.98545279435361" x="0.0" y="0"/>
          </g>
          <text class="text small" x="220" y="18">19.5% </text>
        </g>
       
        <g class="fade-in" style="animation-delay: 1350ms" transform="translate(25,165)">
        
          <text class="text small">Haml</text>
          <g transform="translate(0,10)">
            <rect fill="#333" height="8" rx="5" ry="5" width="195" x="0" y="0"/>
            <rect fill="#ece2a9" height="8" rx="5" ry="5" width="12.069101023658973" x="0.0" y="0"/>
          </g>
          <text class="text small" x="220" y="18">6.2% </text>
        </g>
       
        <g class="fade-in" style="animation-delay: 1650ms" transform="translate(25,200)">
        
          <text class="text small">HTML</text>
          <g transform="translate(0,10)">
            <rect fill="#333" height="8" rx="5" ry="5" width="195" x="0" y="0"/>
            <rect fill="#e34c26" height="8" rx="5" ry="5" width="9.296679621873276" x="0.0" y="0"/>
          </g>
          <text class="text small" x="220" y="18">4.8% </text>
        </g>
      

  </svg>  
  