  
  <svg xmlns="http://www.w3.org/2000/svg" width="320" height="235" viewBox="0 0 320 235" fill="none" role="img">
    <title>
      Most Used Languages
    </title>
    <style>
  .header {
    font-weight: bold;
    font-family: sans-serif;
    font-size: 18px;
    fill: #2f80ed;
  }

  .text {
    font-family: sans-serif;
    fill: #434d58;
    font-size: 14px;
  }
  .small {
    font-size: 12px;
  }

  .icon {
    fill: #4c71f2;
  }

  .fade-in {
    opacity: 0;
    animation: fadeInAnimation 0.8s ease-in-out forwards;
  } 
  @keyframes fadeInAnimation {
    from {
      opacity: 0;
    }
    to {
      opacity: 1;
    }
  }
</style>
    <rect class="container" x="0" y="0" width="100%" height="100%" rx="4.5" fill="#fffefe" stroke="#e4e2e2">
    </rect>
    <g transform="translate(25,35)">
      <text class="header fade-in">
        Most Used Languages
      </text>
    </g>
    
        <g class="fade-in" style="animation-delay: 450ms" transform="translate(25,60)">
        
          <text class="text small">JavaScript</text>
          <g transform="translate(0,10)">
            <rect fill="#ddd" height="8" rx="5" ry="5" width="195" x="0" y="0"/>
            <rect fill="#f1e05a" height="8" rx="5" ry="5" width="93.149304632492" x="0.0" y="0"/>
          </g>
          <text class="text small" x="220" y="18">47.8% </text>
        </g>
       
        <g class="fade-in" style="animation-delay: 750ms" transform="translate(25,95)">
        
          <text class="text small">Ruby</text>
          <g transform="translate(0,10)">
            <rect fill="#ddd" height="8" rx="5" ry="5" width="195" x="0" y="0"/>
            <rect fill="#701516" height="8" rx="5" ry="5" width="39.87502183704626" x="0.0" y="0"/>
          </g>
          <text class="text small" x="220" y="18">20.4% </text>
        </g>
       
        <g class="fade-in" style="animation-delay: 1050ms" transform="translate(25,130)">
        
          <text class="text small">TypeScript</text>
          <g transform="translate(0,10)">
            <rect fill="#ddd" height="8" rx="5" ry="5" width="195" x="0" y="0"/>
            <rect fill="#3178c6" height="8" rx="5" ry="5" width="39.56956523390325" x="0.0" y="0"/>
          </g>
          <text class="text small" x="220" y="18">20.3% </text>
        </g>
       
        <g class="fade-in" style="animation-delay: 1350ms" transform="translate(25,165)">
        
          <text class="text small">Haml</text>
          <g transform="translate(0,10)">
            <rect fill="#ddd" height="8" rx="5" ry="5" width="195" x="0" y="0"/>
            <rect fill="#ece2a9" height="8" rx="5" ry="5" width="12.633224970947234" x="0.0" y="0"/>
          </g>
          <text class="text small" x="220" y="18">6.5% </text>
        </g>
       
        <g class="fade-in" style="animation-delay: 1650ms" transform="translate(25,200)">
        
          <text class="text small">HTML</text>
          <g transform="translate(0,10)">
            <rect fill="#ddd" height="8" rx="5" ry="5" width="195" x="0" y="0"/>
            <rect fill="#e34c26" height="8" rx="5" ry="5" width="9.772883325611248" x="0.0" y="0"/>
          </g>
          <text class="text small" x="220" y="18">5.0% </text>
        </g>
      

  </svg>  
  