
  <svg xmlns="http://www.w3.org/2000/svg" width="320" height="235" viewBox="0 0 320 235" fill="none" role="img">
    <title>
      Top Repositories
    </title>
    <style>
  .header {
    font-weight: bold;
    font-family: sans-serif;
    font-size: 18px;
    fill: #2f80ed;
  }

  .text {
    font-family: sans-serif;
    fill: #434d58;
    font-size: 14px;
  }
  .small {
    font-size: 12px;
  }

  .icon {
    fill: #4c71f2;
  }

  .fade-in {
    opacity: 0;
    animation: fadeInAnimation 0.8s ease-in-out forwards;
  } 
  @keyframes fadeInAnimation {
    from {
      opacity: 0;
    }
    to {
      opacity: 1;
    }
  }
</style>
    <rect class="container" x="0" y="0" width="100%" height="100%" rx="4.5" fill="#fffefe" stroke="#e4e2e2">
    </rect>
    <g transform="translate(25,35)">
      <text class="header fade-in">
        Top Repositories
      </text>
    </g>
    
        <g class="fade-in" style="animation-delay: 450ms" transform="translate(25,60)">

          <text class="text small">SAP-cloud-infrastructure/elektra</text>
          <g transform="translate(0,10)">
            <rect fill="#ddd" height="8" rx="5" ry="5" width="195" x="0" y="0"/>
            <rect fill="#2f80ed" height="8" rx="5" ry="5" width="98.83572320420818"/>
          </g>
          <text class="text small" x="220" y="18">50.7%</text>
        </g>
       
        <g class="fade-in" style="animation-delay: 750ms" transform="translate(25,95)">

          <text class="text small">cloudoperators/juno</text>
          <g transform="translate(0,10)">
            <rect fill="#ddd" height="8" rx="5" ry="5" width="195" x="0" y="0"/>
            <rect fill="#2f80ed" height="8" rx="5" ry="5" width="51.0683908839959"/>
          </g>
          <text class="text small" x="220" y="18">26.2%</text>
        </g>
       
        <g class="fade-in" style="animation-delay: 1050ms" transform="translate(25,130)">

          <text class="text small">cobaltcore-dev/aurora-dashboard</text>
          <g transform="translate(0,10)">
            <rect fill="#ddd" height="8" rx="5" ry="5" width="195" x="0" y="0"/>
            <rect fill="#2f80ed" height="8" rx="5" ry="5" width="36.349529367911515"/>
          </g>
          <text class="text small" x="220" y="18">18.6%</text>
        </g>
       
        <g class="fade-in" style="animation-delay: 1350ms" transform="translate(25,165)">

          <text class="text small">andypf/json-viewer</text>
          <g transform="translate(0,10)">
            <rect fill="#ddd" height="8" rx="5" ry="5" width="195" x="0" y="0"/>
            <rect fill="#2f80ed" height="8" rx="5" ry="5" width="7.421968391665993"/>
          </g>
          <text class="text small" x="220" y="18">3.8%</text>
        </g>
       
        <g class="fade-in" style="animation-delay: 1650ms" transform="translate(25,200)">

          <text class="text small">sapcc/juno-assets-server</text>
          <g transform="translate(0,10)">
            <rect fill="#ddd" height="8" rx="5" ry="5" width="195" x="0" y="0"/>
            <rect fill="#2f80ed" height="8" rx="5" ry="5" width="1.3243881522183962"/>
          </g>
          <text class="text small" x="220" y="18">0.7%</text>
        </g>
      

  </svg>
  