
  <svg xmlns="http://www.w3.org/2000/svg" width="320" height="235" viewBox="0 0 320 235" fill="none" role="img">
    <title>
      Top Repositories
    </title>
    <style>
  .header {
    font-weight: bold;
    font-family: sans-serif;
    font-size: 18px;
    fill: #2f80ed;
  }

  .text {
    font-family: sans-serif;
    fill: #434d58;
    font-size: 14px;
  }
  .small {
    font-size: 12px;
  }

  .icon {
    fill: #4c71f2;
  }

  .fade-in {
    opacity: 0;
    animation: fadeInAnimation 0.8s ease-in-out forwards;
  } 
  @keyframes fadeInAnimation {
    from {
      opacity: 0;
    }
    to {
      opacity: 1;
    }
  }
</style>
    <rect class="container" x="0" y="0" width="100%" height="100%" rx="4.5" fill="#fffefe" stroke="#e4e2e2">
    </rect>
    <g transform="translate(25,35)">
      <text class="header fade-in">
        Top Repositories
      </text>
    </g>
    
        <g class="fade-in" style="animation-delay: 450ms" transform="translate(25,60)">

          <text class="text small">SAP-cloud-infrastructure/elektra</text>
          <g transform="translate(0,10)">
            <rect fill="#ddd" height="8" rx="5" ry="5" width="195" x="0" y="0"/>
            <rect fill="#2f80ed" height="8" rx="5" ry="5" width="91.47534822413155"/>
          </g>
          <text class="text small" x="220" y="18">46.9%</text>
        </g>
       
        <g class="fade-in" style="animation-delay: 750ms" transform="translate(25,95)">

          <text class="text small">cloudoperators/juno</text>
          <g transform="translate(0,10)">
            <rect fill="#ddd" height="8" rx="5" ry="5" width="195" x="0" y="0"/>
            <rect fill="#2f80ed" height="8" rx="5" ry="5" width="49.03200467552456"/>
          </g>
          <text class="text small" x="220" y="18">25.1%</text>
        </g>
       
        <g class="fade-in" style="animation-delay: 1050ms" transform="translate(25,130)">

          <text class="text small">cobaltcore-dev/aurora-dashboard</text>
          <g transform="translate(0,10)">
            <rect fill="#ddd" height="8" rx="5" ry="5" width="195" x="0" y="0"/>
            <rect fill="#2f80ed" height="8" rx="5" ry="5" width="46.369024811095414"/>
          </g>
          <text class="text small" x="220" y="18">23.8%</text>
        </g>
       
        <g class="fade-in" style="animation-delay: 1350ms" transform="translate(25,165)">

          <text class="text small">andypf/json-viewer</text>
          <g transform="translate(0,10)">
            <rect fill="#ddd" height="8" rx="5" ry="5" width="195" x="0" y="0"/>
            <rect fill="#2f80ed" height="8" rx="5" ry="5" width="6.894048870363902"/>
          </g>
          <text class="text small" x="220" y="18">3.5%</text>
        </g>
       
        <g class="fade-in" style="animation-delay: 1650ms" transform="translate(25,200)">

          <text class="text small">sapcc/juno-assets-server</text>
          <g transform="translate(0,10)">
            <rect fill="#ddd" height="8" rx="5" ry="5" width="195" x="0" y="0"/>
            <rect fill="#2f80ed" height="8" rx="5" ry="5" width="1.2295734188845695"/>
          </g>
          <text class="text small" x="220" y="18">0.6%</text>
        </g>
      

  </svg>
  